<svg width="40" height="53" viewBox="0 0 40 53" fill="none" xmlns="http://www.w3.org/2000/svg">
<path d="M18.4668 0.208144C19.47 -0.0693889 20.53 -0.0693741 21.5332 0.208144C22.1388 0.375675 22.6869 0.671688 23.292 1.08705C23.8893 1.49705 24.5828 2.05249 25.4658 2.75893L27.4658 4.35951C28.5357 5.2154 29.185 5.72649 29.6553 6.37514C30.0595 6.93279 30.361 7.55878 30.544 8.22279C30.7567 8.99521 30.75 9.8216 30.75 11.1915V16.3468C30.75 19.5225 28.1757 22.0968 25 22.0968C23.4813 22.0968 22.25 20.8656 22.25 19.3468V15.3468C22.2499 14.1043 21.2426 13.0968 20 13.0968C18.7575 13.0968 17.7501 14.1043 17.75 15.3468V19.3468C17.75 20.8656 16.5188 22.0968 15 22.0968C11.8244 22.0968 9.25002 19.5224 9.25002 16.3468V11.1915C9.25002 9.8216 9.24331 8.99521 9.45608 8.22279C9.63903 7.55877 9.94051 6.93279 10.3448 6.37514C10.815 5.72647 11.4643 5.21541 12.5342 4.35951L14.5342 2.75893C15.4173 2.05247 16.1107 1.49706 16.708 1.08705C17.3132 0.671666 17.8613 0.37568 18.4668 0.208144Z" fill="#4F85AA"/>
<path d="M1.4106 50V39.8182H2.94682V44.2429H8.02282V39.8182H9.56401V50H8.02282V45.5604H2.94682V50H1.4106ZM14.8985 50.1541C14.1826 50.1541 13.5579 49.9901 13.0242 49.6619C12.4906 49.3338 12.0763 48.8748 11.7813 48.2848C11.4864 47.6948 11.3389 47.0054 11.3389 46.2166C11.3389 45.4245 11.4864 44.7318 11.7813 44.1385C12.0763 43.5452 12.4906 43.0845 13.0242 42.7564C13.5579 42.4283 14.1826 42.2642 14.8985 42.2642C15.6144 42.2642 16.2392 42.4283 16.7728 42.7564C17.3064 43.0845 17.7207 43.5452 18.0157 44.1385C18.3107 44.7318 18.4582 45.4245 18.4582 46.2166C18.4582 47.0054 18.3107 47.6948 18.0157 48.2848C17.7207 48.8748 17.3064 49.3338 16.7728 49.6619C16.2392 49.9901 15.6144 50.1541 14.8985 50.1541ZM14.9035 48.9062C15.3675 48.9062 15.752 48.7836 16.0569 48.5384C16.3618 48.2931 16.5872 47.9666 16.733 47.5589C16.8822 47.1513 16.9568 46.7022 16.9568 46.2116C16.9568 45.7244 16.8822 45.277 16.733 44.8693C16.5872 44.4583 16.3618 44.1286 16.0569 43.88C15.752 43.6314 15.3675 43.5071 14.9035 43.5071C14.4362 43.5071 14.0484 43.6314 13.7401 43.88C13.4352 44.1286 13.2082 44.4583 13.059 44.8693C12.9132 45.277 12.8403 45.7244 12.8403 46.2116C12.8403 46.7022 12.9132 47.1513 13.059 47.5589C13.2082 47.9666 13.4352 48.2931 13.7401 48.5384C14.0484 48.7836 14.4362 48.9062 14.9035 48.9062ZM20.1175 50V42.3636H21.5443V43.6065H21.6388C21.7979 43.1856 22.058 42.8575 22.4193 42.6222C22.7806 42.3835 23.2131 42.2642 23.7169 42.2642C24.2273 42.2642 24.6549 42.3835 24.9996 42.6222C25.3476 42.8608 25.6044 43.1889 25.7702 43.6065H25.8497C26.032 43.1989 26.322 42.8741 26.7197 42.6321C27.1175 42.3868 27.5914 42.2642 28.1416 42.2642C28.8343 42.2642 29.3994 42.4813 29.8369 42.9155C30.2777 43.3497 30.4981 44.0043 30.4981 44.8793V50H29.0116V45.0185C29.0116 44.5014 28.8708 44.1269 28.589 43.8949C28.3073 43.6629 27.9709 43.5469 27.5798 43.5469C27.0959 43.5469 26.7197 43.696 26.4513 43.9943C26.1828 44.2893 26.0486 44.6688 26.0486 45.1328V50H24.567V44.924C24.567 44.5097 24.4378 44.1766 24.1792 43.9247C23.9207 43.6728 23.5843 43.5469 23.17 43.5469C22.8883 43.5469 22.6281 43.6214 22.3895 43.7706C22.1541 43.9164 21.9636 44.1203 21.8177 44.3821C21.6752 44.6439 21.604 44.9472 21.604 45.2919V50H20.1175ZM35.7817 50.1541C35.0293 50.1541 34.3814 49.9934 33.8378 49.6719C33.2976 49.3471 32.8799 48.8913 32.585 48.3047C32.2933 47.7147 32.1475 47.0237 32.1475 46.2315C32.1475 45.4493 32.2933 44.7599 32.585 44.1634C32.8799 43.5668 33.2909 43.1011 33.8179 42.7663C34.3482 42.4316 34.968 42.2642 35.6773 42.2642C36.1082 42.2642 36.5258 42.3355 36.9301 42.478C37.3345 42.6205 37.6974 42.8442 38.0189 43.1491C38.3404 43.4541 38.594 43.8501 38.7796 44.3374C38.9652 44.8213 39.058 45.4096 39.058 46.1023V46.6293H32.9877V45.5156H37.6013C37.6013 45.1245 37.5218 44.7782 37.3627 44.4766C37.2036 44.1716 36.9798 43.9313 36.6915 43.7557C36.4065 43.58 36.0717 43.4922 35.6872 43.4922C35.2696 43.4922 34.905 43.5949 34.5935 43.8004C34.2852 44.0026 34.0466 44.2678 33.8776 44.5959C33.7119 44.9207 33.629 45.2737 33.629 45.6548V46.5249C33.629 47.0353 33.7185 47.4695 33.8975 47.8274C34.0798 48.1854 34.3333 48.4588 34.6581 48.6477C34.9829 48.8333 35.3624 48.9261 35.7966 48.9261C36.0783 48.9261 36.3352 48.8864 36.5672 48.8068C36.7992 48.724 36.9997 48.6013 37.1688 48.4389C37.3378 48.2765 37.4671 48.076 37.5566 47.8374L38.9635 48.0909C38.8508 48.5052 38.6486 48.8681 38.357 49.1797C38.0686 49.4879 37.7057 49.7282 37.2682 49.9006C36.834 50.0696 36.3385 50.1541 35.7817 50.1541Z" fill="#4F85AA"/>
</svg>
