<svg width="82" height="53" viewBox="0 0 82 53" fill="none" xmlns="http://www.w3.org/2000/svg">
<rect x="33" y="4" width="12" height="3" rx="1" stroke="#333333" stroke-width="2" stroke-linecap="round" stroke-linejoin="round"/>
<path d="M45 20H39H35C33.8954 20 33 19.1046 33 18V10.372C33 10.1321 33.0863 9.90006 33.2432 9.71843L35.5909 7H39H42.4091L44.7568 9.71843C44.9137 9.90006 45 10.1321 45 10.372V14" stroke="#333333" stroke-width="2" stroke-linecap="round" stroke-linejoin="round"/>
<path d="M37 13L39 13M39 13L41 13M39 13V11M39 13L39 15" stroke="#333333" stroke-width="2" stroke-linecap="round" stroke-linejoin="round"/>
<circle cx="46" cy="17" r="3" stroke="#333333" stroke-width="2" stroke-linecap="round" stroke-linejoin="round"/>
<path d="M47.5 14.402L44.5 19.5981" stroke="#333333" stroke-width="2" stroke-linecap="round" stroke-linejoin="round"/>
<path d="M1.144 39.8182H3.00835L6.24982 47.733H6.36914L9.61062 39.8182H11.475V50H10.0133V42.6321H9.91886L6.91602 49.9851H5.70295L2.70011 42.6271H2.60565V50H1.144V39.8182ZM16.8803 50.1541C16.128 50.1541 15.48 49.9934 14.9364 49.6719C14.3962 49.3471 13.9786 48.8913 13.6836 48.3047C13.3919 47.7147 13.2461 47.0237 13.2461 46.2315C13.2461 45.4493 13.3919 44.7599 13.6836 44.1634C13.9786 43.5668 14.3896 43.1011 14.9165 42.7663C15.4469 42.4316 16.0666 42.2642 16.7759 42.2642C17.2068 42.2642 17.6244 42.3355 18.0288 42.478C18.4331 42.6205 18.796 42.8442 19.1175 43.1491C19.439 43.4541 19.6926 43.8501 19.8782 44.3374C20.0638 44.8213 20.1566 45.4096 20.1566 46.1023V46.6293H14.0863V45.5156H18.6999C18.6999 45.1245 18.6204 44.7782 18.4613 44.4766C18.3022 44.1716 18.0785 43.9313 17.7901 43.7557C17.5051 43.58 17.1703 43.4922 16.7859 43.4922C16.3683 43.4922 16.0037 43.5949 15.6921 43.8004C15.3839 44.0026 15.1452 44.2678 14.9762 44.5959C14.8105 44.9207 14.7276 45.2737 14.7276 45.6548V46.5249C14.7276 47.0353 14.8171 47.4695 14.9961 47.8274C15.1784 48.1854 15.4319 48.4588 15.7567 48.6477C16.0816 48.8333 16.4611 48.9261 16.8952 48.9261C17.177 48.9261 17.4338 48.8864 17.6658 48.8068C17.8978 48.724 18.0984 48.6013 18.2674 48.4389C18.4364 48.2765 18.5657 48.076 18.6552 47.8374L20.0621 48.0909C19.9495 48.5052 19.7473 48.8681 19.4556 49.1797C19.1673 49.4879 18.8043 49.7282 18.3668 49.9006C17.9326 50.0696 17.4371 50.1541 16.8803 50.1541ZM24.6646 50.1491C24.0481 50.1491 23.4979 49.9917 23.014 49.6768C22.5334 49.3587 22.1556 48.9062 21.8805 48.3196C21.6087 47.7296 21.4728 47.022 21.4728 46.1967C21.4728 45.3714 21.6104 44.6655 21.8855 44.0788C22.1639 43.4922 22.545 43.0431 23.0289 42.7315C23.5128 42.42 24.0614 42.2642 24.6745 42.2642C25.1485 42.2642 25.5297 42.3438 25.818 42.5028C26.1097 42.6586 26.335 42.8409 26.4941 43.0497C26.6565 43.2585 26.7825 43.4425 26.872 43.6016H26.9615V39.8182H28.448V50H26.9963V48.8118H26.872C26.7825 48.9742 26.6532 49.1598 26.4842 49.3686C26.3185 49.5774 26.0898 49.7597 25.7981 49.9155C25.5065 50.0713 25.1286 50.1491 24.6646 50.1491ZM24.9927 48.8814C25.4203 48.8814 25.7815 48.7687 26.0765 48.5433C26.3748 48.3146 26.6002 47.9981 26.7527 47.5938C26.9084 47.1894 26.9863 46.7187 26.9863 46.1818C26.9863 45.6515 26.9101 45.1875 26.7576 44.7898C26.6052 44.392 26.3815 44.0821 26.0865 43.8601C25.7915 43.638 25.4269 43.527 24.9927 43.527C24.5453 43.527 24.1724 43.643 23.8741 43.875C23.5758 44.107 23.3504 44.4235 23.198 44.8246C23.0488 45.2256 22.9743 45.678 22.9743 46.1818C22.9743 46.6922 23.0505 47.1513 23.2029 47.5589C23.3554 47.9666 23.5808 48.2898 23.8791 48.5284C24.1807 48.7637 24.5519 48.8814 24.9927 48.8814ZM30.5696 50V42.3636H32.0561V50H30.5696ZM31.3203 41.1854C31.0618 41.1854 30.8397 41.0992 30.6541 40.9268C30.4718 40.7512 30.3807 40.5424 30.3807 40.3004C30.3807 40.0552 30.4718 39.8464 30.6541 39.674C30.8397 39.4983 31.0618 39.4105 31.3203 39.4105C31.5788 39.4105 31.7992 39.4983 31.9815 39.674C32.1671 39.8464 32.2599 40.0552 32.2599 40.3004C32.2599 40.5424 32.1671 40.7512 31.9815 40.9268C31.7992 41.0992 31.5788 41.1854 31.3203 41.1854ZM37.2725 50.1541C36.5334 50.1541 35.8971 49.9867 35.3635 49.652C34.8332 49.3139 34.4255 48.8482 34.1404 48.255C33.8554 47.6617 33.7129 46.9822 33.7129 46.2166C33.7129 45.4411 33.8587 44.7566 34.1504 44.1634C34.4421 43.5668 34.853 43.1011 35.3833 42.7663C35.9136 42.4316 36.5384 42.2642 37.2576 42.2642C37.8377 42.2642 38.3547 42.3719 38.8088 42.5874C39.2628 42.7995 39.6291 43.0978 39.9075 43.4822C40.1892 43.8667 40.3566 44.3158 40.4096 44.8295H38.9629C38.8833 44.4716 38.7011 44.1634 38.416 43.9048C38.1343 43.6463 37.7565 43.517 37.2825 43.517C36.8682 43.517 36.5053 43.6264 36.1937 43.8452C35.8855 44.0606 35.6452 44.3688 35.4728 44.7699C35.3005 45.1676 35.2143 45.6383 35.2143 46.1818C35.2143 46.7386 35.2988 47.2192 35.4679 47.6236C35.6369 48.0279 35.8755 48.3411 36.1838 48.5632C36.4953 48.7853 36.8616 48.8963 37.2825 48.8963C37.5642 48.8963 37.8194 48.8449 38.0481 48.7422C38.2801 48.6361 38.474 48.4853 38.6298 48.2898C38.7889 48.0942 38.8999 47.8589 38.9629 47.5838H40.4096C40.3566 48.0777 40.1958 48.5185 39.9274 48.9062C39.6589 49.294 39.2993 49.599 38.8485 49.821C38.4011 50.0431 37.8758 50.1541 37.2725 50.1541ZM44.2216 50.169C43.7377 50.169 43.3002 50.0795 42.9091 49.9006C42.518 49.7183 42.2081 49.4548 41.9794 49.1101C41.754 48.7654 41.6413 48.3428 41.6413 47.8423C41.6413 47.4115 41.7242 47.0568 41.8899 46.7784C42.0556 46.5 42.2794 46.2796 42.5611 46.1172C42.8428 45.9548 43.1577 45.8321 43.5057 45.7493C43.8537 45.6664 44.2083 45.6035 44.5696 45.5604C45.027 45.5073 45.3982 45.4643 45.6832 45.4311C45.9683 45.3946 46.1754 45.3366 46.3047 45.2571C46.4339 45.1776 46.4986 45.0483 46.4986 44.8693V44.8345C46.4986 44.4003 46.3759 44.0639 46.1307 43.8253C45.8887 43.5866 45.5275 43.4673 45.0469 43.4673C44.5464 43.4673 44.152 43.5784 43.8636 43.8004C43.5786 44.0192 43.3814 44.2628 43.272 44.5312L41.875 44.2131C42.0407 43.7491 42.2827 43.3745 42.6009 43.0895C42.9223 42.8011 43.2919 42.5923 43.7095 42.4631C44.1271 42.3305 44.5663 42.2642 45.027 42.2642C45.3319 42.2642 45.6551 42.3007 45.9964 42.3736C46.3411 42.4432 46.6626 42.5724 46.9609 42.7614C47.2625 42.9503 47.5095 43.2204 47.7017 43.5717C47.8939 43.9197 47.9901 44.3722 47.9901 44.929V50H46.5384V48.956H46.4787C46.3826 49.1482 46.2384 49.3371 46.0462 49.5227C45.8539 49.7083 45.607 49.8625 45.3054 49.9851C45.0038 50.1077 44.6425 50.169 44.2216 50.169ZM44.5447 48.9759C44.9557 48.9759 45.3071 48.8946 45.5987 48.7322C45.8937 48.5698 46.1174 48.3577 46.2699 48.0959C46.4257 47.8307 46.5036 47.5473 46.5036 47.2457V46.2614C46.4505 46.3144 46.3478 46.3641 46.1953 46.4105C46.0462 46.4536 45.8755 46.4917 45.6832 46.5249C45.491 46.5547 45.3037 46.5829 45.1214 46.6094C44.9392 46.6326 44.7867 46.6525 44.6641 46.669C44.3757 46.7055 44.1122 46.7668 43.8736 46.853C43.6383 46.9392 43.4493 47.0634 43.3068 47.2259C43.1676 47.3849 43.098 47.5971 43.098 47.8622C43.098 48.2301 43.2339 48.5085 43.5057 48.6974C43.7775 48.883 44.1238 48.9759 44.5447 48.9759ZM53.5346 42.3636V43.5568H49.3635V42.3636H53.5346ZM50.4821 40.5341H51.9686V47.7578C51.9686 48.0462 52.0117 48.2633 52.0978 48.4091C52.184 48.5516 52.295 48.6494 52.4309 48.7024C52.5701 48.7521 52.7209 48.777 52.8833 48.777C53.0027 48.777 53.1071 48.7687 53.1966 48.7521C53.286 48.7356 53.3556 48.7223 53.4054 48.7124L53.6738 49.9403C53.5877 49.9735 53.465 50.0066 53.3059 50.0398C53.1468 50.0762 52.948 50.0961 52.7093 50.0994C52.3182 50.1061 51.9537 50.0365 51.6156 49.8906C51.2775 49.7448 51.0041 49.5194 50.7953 49.2145C50.5865 48.9096 50.4821 48.5268 50.4821 48.0661V40.5341ZM55.179 50V42.3636H56.6655V50H55.179ZM55.9297 41.1854C55.6712 41.1854 55.4491 41.0992 55.2635 40.9268C55.0812 40.7512 54.9901 40.5424 54.9901 40.3004C54.9901 40.0552 55.0812 39.8464 55.2635 39.674C55.4491 39.4983 55.6712 39.4105 55.9297 39.4105C56.1882 39.4105 56.4086 39.4983 56.5909 39.674C56.7765 39.8464 56.8693 40.0552 56.8693 40.3004C56.8693 40.5424 56.7765 40.7512 56.5909 40.9268C56.4086 41.0992 56.1882 41.1854 55.9297 41.1854ZM61.8819 50.1541C61.166 50.1541 60.5413 49.9901 60.0076 49.6619C59.474 49.3338 59.0597 48.8748 58.7647 48.2848C58.4698 47.6948 58.3223 47.0054 58.3223 46.2166C58.3223 45.4245 58.4698 44.7318 58.7647 44.1385C59.0597 43.5452 59.474 43.0845 60.0076 42.7564C60.5413 42.4283 61.166 42.2642 61.8819 42.2642C62.5978 42.2642 63.2226 42.4283 63.7562 42.7564C64.2898 43.0845 64.7041 43.5452 64.9991 44.1385C65.2941 44.7318 65.4416 45.4245 65.4416 46.2166C65.4416 47.0054 65.2941 47.6948 64.9991 48.2848C64.7041 48.8748 64.2898 49.3338 63.7562 49.6619C63.2226 49.9901 62.5978 50.1541 61.8819 50.1541ZM61.8869 48.9062C62.3509 48.9062 62.7354 48.7836 63.0403 48.5384C63.3452 48.2931 63.5706 47.9666 63.7164 47.5589C63.8656 47.1513 63.9402 46.7022 63.9402 46.2116C63.9402 45.7244 63.8656 45.277 63.7164 44.8693C63.5706 44.4583 63.3452 44.1286 63.0403 43.88C62.7354 43.6314 62.3509 43.5071 61.8869 43.5071C61.4196 43.5071 61.0318 43.6314 60.7235 43.88C60.4186 44.1286 60.1916 44.4583 60.0424 44.8693C59.8966 45.277 59.8237 45.7244 59.8237 46.2116C59.8237 46.7022 59.8966 47.1513 60.0424 47.5589C60.1916 47.9666 60.4186 48.2931 60.7235 48.5384C61.0318 48.7836 61.4196 48.9062 61.8869 48.9062ZM68.5874 45.4659V50H67.1009V42.3636H68.5277V43.6065H68.6222C68.7978 43.2022 69.0729 42.8774 69.4474 42.6321C69.8253 42.3868 70.3009 42.2642 70.8743 42.2642C71.3946 42.2642 71.8504 42.3736 72.2415 42.5923C72.6326 42.8078 72.9358 43.1293 73.1513 43.5568C73.3667 43.9844 73.4744 44.513 73.4744 45.1428V50H71.9879V45.3217C71.9879 44.7682 71.8438 44.3357 71.5554 44.0241C71.267 43.7093 70.871 43.5518 70.3672 43.5518C70.0225 43.5518 69.7159 43.6264 69.4474 43.7756C69.1823 43.9247 68.9718 44.1435 68.8161 44.4318C68.6636 44.7169 68.5874 45.0616 68.5874 45.4659ZM81.1903 44.228L79.843 44.4666C79.7867 44.2943 79.6972 44.1302 79.5746 43.9744C79.4553 43.8187 79.2929 43.6911 79.0874 43.5916C78.8819 43.4922 78.625 43.4425 78.3168 43.4425C77.8958 43.4425 77.5445 43.5369 77.2628 43.7259C76.9811 43.9115 76.8402 44.1518 76.8402 44.4467C76.8402 44.7019 76.9347 44.9074 77.1236 45.0632C77.3125 45.219 77.6174 45.3466 78.0384 45.446L79.2514 45.7244C79.9541 45.8868 80.4777 46.1371 80.8224 46.4751C81.1671 46.8132 81.3395 47.2524 81.3395 47.7926C81.3395 48.25 81.2069 48.6577 80.9418 49.0156C80.6799 49.3703 80.3137 49.6487 79.843 49.8509C79.3757 50.053 78.8338 50.1541 78.2173 50.1541C77.3622 50.1541 76.6645 49.9718 76.1243 49.6072C75.584 49.2393 75.2526 48.7173 75.13 48.0412L76.5668 47.8224C76.6563 48.197 76.8402 48.4804 77.1186 48.6726C77.397 48.8615 77.7599 48.956 78.2074 48.956C78.6946 48.956 79.084 48.8549 79.3757 48.6527C79.6674 48.4472 79.8132 48.197 79.8132 47.902C79.8132 47.6634 79.7237 47.4628 79.5447 47.3004C79.3691 47.138 79.099 47.0154 78.7344 46.9325L77.4418 46.6491C76.7292 46.4867 76.2022 46.2282 75.8608 45.8736C75.5227 45.5189 75.3537 45.0698 75.3537 44.5263C75.3537 44.0755 75.4796 43.6811 75.7315 43.343C75.9834 43.005 76.3314 42.7415 76.7756 42.5526C77.2197 42.3603 77.7285 42.2642 78.3018 42.2642C79.1271 42.2642 79.7768 42.4432 80.2507 42.8011C80.7247 43.1558 81.0379 43.6314 81.1903 44.228Z" fill="#333333"/>
</svg>
