<svg width="48" height="48" viewBox="0 0 48 48" fill="none" xmlns="http://www.w3.org/2000/svg">
<rect width="48" height="48" rx="24" fill="#4F85AA"/>
<path d="M29 34H19C18.59 34 18.25 33.66 18.25 33.25C18.25 32.84 18.59 32.5 19 32.5H29C29.41 32.5 29.75 32.84 29.75 33.25C29.75 33.66 29.41 34 29 34Z" fill="#F8F9FB"/>
<path d="M32.35 17.52L28.35 20.38C27.82 20.76 27.06 20.53 26.83 19.92L24.94 14.88C24.62 14.01 23.39 14.01 23.07 14.88L21.17 19.91C20.94 20.53 20.19 20.76 19.66 20.37L15.66 17.51C14.86 16.95 13.8 17.74 14.13 18.67L18.29 30.32C18.43 30.72 18.81 30.98 19.23 30.98H28.76C29.18 30.98 29.56 30.71 29.7 30.32L33.86 18.67C34.2 17.74 33.14 16.95 32.35 17.52ZM26.5 26.75H21.5C21.09 26.75 20.75 26.41 20.75 26C20.75 25.59 21.09 25.25 21.5 25.25H26.5C26.91 25.25 27.25 25.59 27.25 26C27.25 26.41 26.91 26.75 26.5 26.75Z" fill="#F8F9FB"/>
</svg>
