<svg width="400" height="343" viewBox="0 0 400 343" fill="none" xmlns="http://www.w3.org/2000/svg">
<rect width="400" height="343" rx="16" fill="#F8F9FB"/>
<circle cx="200" cy="109" r="49" fill="#4F85AA" stroke="#F8F9FB" stroke-width="2"/>
<path d="M191 110.354L198.071 117.425" stroke="#F8F9FB" stroke-width="3" stroke-linecap="round"/>
<path d="M198.646 117L215.646 100" stroke="#F8F9FB" stroke-width="3" stroke-linecap="round"/>
<path d="M79.2593 228.2C79.2593 226.277 79.6886 224.56 80.5473 223.048C81.4246 221.517 82.61 220.332 84.1033 219.492C85.6153 218.633 87.3046 218.204 89.1713 218.204C91.3553 218.204 93.2686 218.764 94.9113 219.884C96.554 221.004 97.702 222.553 98.3553 224.532H93.8473C93.3993 223.599 92.7646 222.899 91.9433 222.432C91.1406 221.965 90.2073 221.732 89.1433 221.732C88.0046 221.732 86.9873 222.003 86.0913 222.544C85.214 223.067 84.5233 223.813 84.0193 224.784C83.534 225.755 83.2913 226.893 83.2913 228.2C83.2913 229.488 83.534 230.627 84.0193 231.616C84.5233 232.587 85.214 233.343 86.0913 233.884C86.9873 234.407 88.0046 234.668 89.1433 234.668C90.2073 234.668 91.1406 234.435 91.9433 233.968C92.7646 233.483 93.3993 232.773 93.8473 231.84H98.3553C97.702 233.837 96.554 235.396 94.9113 236.516C93.2873 237.617 91.374 238.168 89.1713 238.168C87.3046 238.168 85.6153 237.748 84.1033 236.908C82.61 236.049 81.4246 234.864 80.5473 233.352C79.6886 231.84 79.2593 230.123 79.2593 228.2ZM108.591 238.252C107.098 238.252 105.754 237.925 104.559 237.272C103.365 236.6 102.422 235.657 101.731 234.444C101.059 233.231 100.723 231.831 100.723 230.244C100.723 228.657 101.069 227.257 101.759 226.044C102.469 224.831 103.43 223.897 104.643 223.244C105.857 222.572 107.21 222.236 108.703 222.236C110.197 222.236 111.55 222.572 112.763 223.244C113.977 223.897 114.929 224.831 115.619 226.044C116.329 227.257 116.683 228.657 116.683 230.244C116.683 231.831 116.319 233.231 115.591 234.444C114.882 235.657 113.911 236.6 112.679 237.272C111.466 237.925 110.103 238.252 108.591 238.252ZM108.591 234.836C109.301 234.836 109.963 234.668 110.579 234.332C111.214 233.977 111.718 233.455 112.091 232.764C112.465 232.073 112.651 231.233 112.651 230.244C112.651 228.769 112.259 227.64 111.475 226.856C110.71 226.053 109.767 225.652 108.647 225.652C107.527 225.652 106.585 226.053 105.819 226.856C105.073 227.64 104.699 228.769 104.699 230.244C104.699 231.719 105.063 232.857 105.791 233.66C106.538 234.444 107.471 234.836 108.591 234.836ZM128.155 222.264C130.003 222.264 131.496 222.852 132.635 224.028C133.774 225.185 134.343 226.809 134.343 228.9V238H130.423V229.432C130.423 228.2 130.115 227.257 129.499 226.604C128.883 225.932 128.043 225.596 126.979 225.596C125.896 225.596 125.038 225.932 124.403 226.604C123.787 227.257 123.479 228.2 123.479 229.432V238H119.559V222.488H123.479V224.42C124.002 223.748 124.664 223.225 125.467 222.852C126.288 222.46 127.184 222.264 128.155 222.264ZM144.147 222.236C145.304 222.236 146.321 222.469 147.199 222.936C148.076 223.384 148.767 223.972 149.271 224.7V222.488H153.219V238.112C153.219 239.549 152.929 240.828 152.351 241.948C151.772 243.087 150.904 243.983 149.747 244.636C148.589 245.308 147.189 245.644 145.547 245.644C143.344 245.644 141.533 245.131 140.115 244.104C138.715 243.077 137.921 241.677 137.735 239.904H141.627C141.832 240.613 142.271 241.173 142.943 241.584C143.633 242.013 144.464 242.228 145.435 242.228C146.573 242.228 147.497 241.883 148.207 241.192C148.916 240.52 149.271 239.493 149.271 238.112V235.704C148.767 236.432 148.067 237.039 147.171 237.524C146.293 238.009 145.285 238.252 144.147 238.252C142.84 238.252 141.645 237.916 140.563 237.244C139.48 236.572 138.621 235.629 137.987 234.416C137.371 233.184 137.063 231.775 137.063 230.188C137.063 228.62 137.371 227.229 137.987 226.016C138.621 224.803 139.471 223.869 140.535 223.216C141.617 222.563 142.821 222.236 144.147 222.236ZM149.271 230.244C149.271 229.292 149.084 228.48 148.711 227.808C148.337 227.117 147.833 226.595 147.199 226.24C146.564 225.867 145.883 225.68 145.155 225.68C144.427 225.68 143.755 225.857 143.139 226.212C142.523 226.567 142.019 227.089 141.627 227.78C141.253 228.452 141.067 229.255 141.067 230.188C141.067 231.121 141.253 231.943 141.627 232.652C142.019 233.343 142.523 233.875 143.139 234.248C143.773 234.621 144.445 234.808 145.155 234.808C145.883 234.808 146.564 234.631 147.199 234.276C147.833 233.903 148.337 233.38 148.711 232.708C149.084 232.017 149.271 231.196 149.271 230.244ZM160.967 224.896C161.471 224.075 162.125 223.431 162.927 222.964C163.749 222.497 164.682 222.264 165.727 222.264V226.38H164.691C163.459 226.38 162.526 226.669 161.891 227.248C161.275 227.827 160.967 228.835 160.967 230.272V238H157.047V222.488H160.967V224.896ZM167.36 230.188C167.36 228.62 167.668 227.229 168.284 226.016C168.918 224.803 169.768 223.869 170.832 223.216C171.914 222.563 173.118 222.236 174.444 222.236C175.601 222.236 176.609 222.469 177.468 222.936C178.345 223.403 179.045 223.991 179.568 224.7V222.488H183.516V238H179.568V235.732C179.064 236.46 178.364 237.067 177.468 237.552C176.59 238.019 175.573 238.252 174.416 238.252C173.109 238.252 171.914 237.916 170.832 237.244C169.768 236.572 168.918 235.629 168.284 234.416C167.668 233.184 167.36 231.775 167.36 230.188ZM179.568 230.244C179.568 229.292 179.381 228.48 179.008 227.808C178.634 227.117 178.13 226.595 177.496 226.24C176.861 225.867 176.18 225.68 175.452 225.68C174.724 225.68 174.052 225.857 173.436 226.212C172.82 226.567 172.316 227.089 171.924 227.78C171.55 228.452 171.364 229.255 171.364 230.188C171.364 231.121 171.55 231.943 171.924 232.652C172.316 233.343 172.82 233.875 173.436 234.248C174.07 234.621 174.742 234.808 175.452 234.808C176.18 234.808 176.861 234.631 177.496 234.276C178.13 233.903 178.634 233.38 179.008 232.708C179.381 232.017 179.568 231.196 179.568 230.244ZM191.908 225.708V233.212C191.908 233.735 192.029 234.117 192.272 234.36C192.533 234.584 192.963 234.696 193.56 234.696H195.38V238H192.916C189.612 238 187.96 236.395 187.96 233.184V225.708H186.112V222.488H187.96V218.652H191.908V222.488H195.38V225.708H191.908ZM212.844 222.488V238H208.896V236.04C208.392 236.712 207.729 237.244 206.908 237.636C206.105 238.009 205.228 238.196 204.276 238.196C203.062 238.196 201.989 237.944 201.056 237.44C200.122 236.917 199.385 236.161 198.844 235.172C198.321 234.164 198.06 232.969 198.06 231.588V222.488H201.98V231.028C201.98 232.26 202.288 233.212 202.904 233.884C203.52 234.537 204.36 234.864 205.424 234.864C206.506 234.864 207.356 234.537 207.972 233.884C208.588 233.212 208.896 232.26 208.896 231.028V222.488H212.844ZM220.631 217.28V238H216.711V217.28H220.631ZM223.496 230.188C223.496 228.62 223.804 227.229 224.42 226.016C225.055 224.803 225.904 223.869 226.968 223.216C228.051 222.563 229.255 222.236 230.58 222.236C231.738 222.236 232.746 222.469 233.604 222.936C234.482 223.403 235.182 223.991 235.704 224.7V222.488H239.652V238H235.704V235.732C235.2 236.46 234.5 237.067 233.604 237.552C232.727 238.019 231.71 238.252 230.552 238.252C229.246 238.252 228.051 237.916 226.968 237.244C225.904 236.572 225.055 235.629 224.42 234.416C223.804 233.184 223.496 231.775 223.496 230.188ZM235.704 230.244C235.704 229.292 235.518 228.48 235.144 227.808C234.771 227.117 234.267 226.595 233.632 226.24C232.998 225.867 232.316 225.68 231.588 225.68C230.86 225.68 230.188 225.857 229.572 226.212C228.956 226.567 228.452 227.089 228.06 227.78C227.687 228.452 227.5 229.255 227.5 230.188C227.5 231.121 227.687 231.943 228.06 232.652C228.452 233.343 228.956 233.875 229.572 234.248C230.207 234.621 230.879 234.808 231.588 234.808C232.316 234.808 232.998 234.631 233.632 234.276C234.267 233.903 234.771 233.38 235.144 232.708C235.518 232.017 235.704 231.196 235.704 230.244ZM248.045 225.708V233.212C248.045 233.735 248.166 234.117 248.409 234.36C248.67 234.584 249.099 234.696 249.697 234.696H251.517V238H249.053C245.749 238 244.097 236.395 244.097 233.184V225.708H242.249V222.488H244.097V218.652H248.045V222.488H251.517V225.708H248.045ZM256.324 220.64C255.634 220.64 255.055 220.425 254.588 219.996C254.14 219.548 253.916 218.997 253.916 218.344C253.916 217.691 254.14 217.149 254.588 216.72C255.055 216.272 255.634 216.048 256.324 216.048C257.015 216.048 257.584 216.272 258.032 216.72C258.499 217.149 258.732 217.691 258.732 218.344C258.732 218.997 258.499 219.548 258.032 219.996C257.584 220.425 257.015 220.64 256.324 220.64ZM258.256 222.488V238H254.336V222.488H258.256ZM269.017 238.252C267.524 238.252 266.18 237.925 264.985 237.272C263.791 236.6 262.848 235.657 262.157 234.444C261.485 233.231 261.149 231.831 261.149 230.244C261.149 228.657 261.495 227.257 262.185 226.044C262.895 224.831 263.856 223.897 265.069 223.244C266.283 222.572 267.636 222.236 269.129 222.236C270.623 222.236 271.976 222.572 273.189 223.244C274.403 223.897 275.355 224.831 276.045 226.044C276.755 227.257 277.109 228.657 277.109 230.244C277.109 231.831 276.745 233.231 276.017 234.444C275.308 235.657 274.337 236.6 273.105 237.272C271.892 237.925 270.529 238.252 269.017 238.252ZM269.017 234.836C269.727 234.836 270.389 234.668 271.005 234.332C271.64 233.977 272.144 233.455 272.517 232.764C272.891 232.073 273.077 231.233 273.077 230.244C273.077 228.769 272.685 227.64 271.901 226.856C271.136 226.053 270.193 225.652 269.073 225.652C267.953 225.652 267.011 226.053 266.245 226.856C265.499 227.64 265.125 228.769 265.125 230.244C265.125 231.719 265.489 232.857 266.217 233.66C266.964 234.444 267.897 234.836 269.017 234.836ZM288.581 222.264C290.429 222.264 291.922 222.852 293.061 224.028C294.199 225.185 294.769 226.809 294.769 228.9V238H290.849V229.432C290.849 228.2 290.541 227.257 289.925 226.604C289.309 225.932 288.469 225.596 287.405 225.596C286.322 225.596 285.463 225.932 284.829 226.604C284.213 227.257 283.905 228.2 283.905 229.432V238H279.985V222.488H283.905V224.42C284.427 223.748 285.09 223.225 285.893 222.852C286.714 222.46 287.61 222.264 288.581 222.264ZM304.432 238.252C303.163 238.252 302.024 238.028 301.016 237.58C300.008 237.113 299.206 236.488 298.608 235.704C298.03 234.92 297.712 234.052 297.656 233.1H301.604C301.679 233.697 301.968 234.192 302.472 234.584C302.995 234.976 303.639 235.172 304.404 235.172C305.151 235.172 305.73 235.023 306.14 234.724C306.57 234.425 306.784 234.043 306.784 233.576C306.784 233.072 306.523 232.699 306 232.456C305.496 232.195 304.684 231.915 303.564 231.616C302.407 231.336 301.455 231.047 300.708 230.748C299.98 230.449 299.346 229.992 298.804 229.376C298.282 228.76 298.02 227.929 298.02 226.884C298.02 226.025 298.263 225.241 298.748 224.532C299.252 223.823 299.962 223.263 300.876 222.852C301.81 222.441 302.902 222.236 304.152 222.236C306 222.236 307.475 222.703 308.576 223.636C309.678 224.551 310.284 225.792 310.396 227.36H306.644C306.588 226.744 306.327 226.259 305.86 225.904C305.412 225.531 304.806 225.344 304.04 225.344C303.331 225.344 302.78 225.475 302.388 225.736C302.015 225.997 301.828 226.361 301.828 226.828C301.828 227.351 302.09 227.752 302.612 228.032C303.135 228.293 303.947 228.564 305.048 228.844C306.168 229.124 307.092 229.413 307.82 229.712C308.548 230.011 309.174 230.477 309.696 231.112C310.238 231.728 310.518 232.549 310.536 233.576C310.536 234.472 310.284 235.275 309.78 235.984C309.295 236.693 308.586 237.253 307.652 237.664C306.738 238.056 305.664 238.252 304.432 238.252ZM318.822 218.12L318.374 231.644H315.07L314.594 218.12H318.822ZM316.806 238.196C316.097 238.196 315.509 237.981 315.042 237.552C314.594 237.104 314.37 236.553 314.37 235.9C314.37 235.247 314.594 234.705 315.042 234.276C315.509 233.828 316.097 233.604 316.806 233.604C317.497 233.604 318.066 233.828 318.514 234.276C318.962 234.705 319.186 235.247 319.186 235.9C319.186 236.553 318.962 237.104 318.514 237.552C318.066 237.981 317.497 238.196 316.806 238.196Z" fill="#333333"/>
<path d="M133.367 266.578C134.841 266.578 135.917 266.867 136.594 267.445C137.276 268.018 137.617 268.841 137.617 269.914C137.617 270.398 137.536 270.859 137.375 271.297C137.219 271.729 136.964 272.112 136.609 272.445C136.255 272.773 135.789 273.034 135.211 273.227C134.638 273.414 133.935 273.508 133.102 273.508H131.711V278H130.383V266.578H133.367ZM133.242 267.711H131.711V272.367H132.953C133.682 272.367 134.289 272.289 134.773 272.133C135.263 271.977 135.63 271.724 135.875 271.375C136.12 271.021 136.242 270.552 136.242 269.969C136.242 269.208 136 268.643 135.516 268.273C135.031 267.898 134.273 267.711 133.242 267.711ZM143.016 269.297C144.036 269.297 144.794 269.526 145.289 269.984C145.784 270.443 146.031 271.174 146.031 272.18V278H145.086L144.836 276.734H144.773C144.534 277.047 144.284 277.31 144.023 277.523C143.763 277.732 143.461 277.891 143.117 278C142.779 278.104 142.362 278.156 141.867 278.156C141.346 278.156 140.883 278.065 140.477 277.883C140.076 277.701 139.758 277.424 139.523 277.055C139.294 276.685 139.18 276.216 139.18 275.648C139.18 274.794 139.518 274.138 140.195 273.68C140.872 273.221 141.904 272.971 143.289 272.93L144.766 272.867V272.344C144.766 271.604 144.607 271.086 144.289 270.789C143.971 270.492 143.523 270.344 142.945 270.344C142.497 270.344 142.07 270.409 141.664 270.539C141.258 270.669 140.872 270.823 140.508 271L140.109 270.016C140.495 269.818 140.938 269.648 141.438 269.508C141.938 269.367 142.464 269.297 143.016 269.297ZM144.75 273.781L143.445 273.836C142.378 273.878 141.625 274.052 141.188 274.359C140.75 274.667 140.531 275.102 140.531 275.664C140.531 276.154 140.68 276.516 140.977 276.75C141.273 276.984 141.667 277.102 142.156 277.102C142.917 277.102 143.539 276.891 144.023 276.469C144.508 276.047 144.75 275.414 144.75 274.57V273.781ZM154.242 275.656C154.242 276.203 154.104 276.664 153.828 277.039C153.557 277.409 153.167 277.688 152.656 277.875C152.151 278.062 151.547 278.156 150.844 278.156C150.245 278.156 149.727 278.109 149.289 278.016C148.852 277.922 148.469 277.789 148.141 277.617V276.422C148.49 276.594 148.906 276.75 149.391 276.891C149.875 277.031 150.37 277.102 150.875 277.102C151.615 277.102 152.151 276.982 152.484 276.742C152.818 276.503 152.984 276.177 152.984 275.766C152.984 275.531 152.917 275.326 152.781 275.148C152.651 274.966 152.43 274.792 152.117 274.625C151.805 274.453 151.372 274.266 150.82 274.062C150.273 273.854 149.799 273.648 149.398 273.445C149.003 273.237 148.695 272.984 148.477 272.688C148.263 272.391 148.156 272.005 148.156 271.531C148.156 270.807 148.448 270.253 149.031 269.867C149.62 269.477 150.391 269.281 151.344 269.281C151.859 269.281 152.341 269.333 152.789 269.438C153.242 269.536 153.664 269.672 154.055 269.844L153.617 270.883C153.263 270.732 152.885 270.604 152.484 270.5C152.083 270.396 151.674 270.344 151.258 270.344C150.659 270.344 150.198 270.443 149.875 270.641C149.557 270.839 149.398 271.109 149.398 271.453C149.398 271.719 149.471 271.938 149.617 272.109C149.768 272.281 150.008 272.443 150.336 272.594C150.664 272.745 151.096 272.922 151.633 273.125C152.169 273.323 152.633 273.529 153.023 273.742C153.414 273.951 153.714 274.206 153.922 274.508C154.135 274.805 154.242 275.188 154.242 275.656ZM161.867 275.656C161.867 276.203 161.729 276.664 161.453 277.039C161.182 277.409 160.792 277.688 160.281 277.875C159.776 278.062 159.172 278.156 158.469 278.156C157.87 278.156 157.352 278.109 156.914 278.016C156.477 277.922 156.094 277.789 155.766 277.617V276.422C156.115 276.594 156.531 276.75 157.016 276.891C157.5 277.031 157.995 277.102 158.5 277.102C159.24 277.102 159.776 276.982 160.109 276.742C160.443 276.503 160.609 276.177 160.609 275.766C160.609 275.531 160.542 275.326 160.406 275.148C160.276 274.966 160.055 274.792 159.742 274.625C159.43 274.453 158.997 274.266 158.445 274.062C157.898 273.854 157.424 273.648 157.023 273.445C156.628 273.237 156.32 272.984 156.102 272.688C155.888 272.391 155.781 272.005 155.781 271.531C155.781 270.807 156.073 270.253 156.656 269.867C157.245 269.477 158.016 269.281 158.969 269.281C159.484 269.281 159.966 269.333 160.414 269.438C160.867 269.536 161.289 269.672 161.68 269.844L161.242 270.883C160.888 270.732 160.51 270.604 160.109 270.5C159.708 270.396 159.299 270.344 158.883 270.344C158.284 270.344 157.823 270.443 157.5 270.641C157.182 270.839 157.023 271.109 157.023 271.453C157.023 271.719 157.096 271.938 157.242 272.109C157.393 272.281 157.633 272.443 157.961 272.594C158.289 272.745 158.721 272.922 159.258 273.125C159.794 273.323 160.258 273.529 160.648 273.742C161.039 273.951 161.339 274.206 161.547 274.508C161.76 274.805 161.867 275.188 161.867 275.656ZM170.922 277.984L169.398 273C169.331 272.786 169.266 272.578 169.203 272.375C169.146 272.167 169.091 271.969 169.039 271.781C168.992 271.589 168.948 271.411 168.906 271.25C168.87 271.083 168.839 270.94 168.812 270.82H168.758C168.737 270.94 168.708 271.083 168.672 271.25C168.635 271.411 168.591 271.589 168.539 271.781C168.492 271.974 168.44 272.177 168.383 272.391C168.326 272.599 168.26 272.81 168.188 273.023L166.594 277.984H165.133L162.773 269.422H164.117L165.352 274.148C165.435 274.461 165.513 274.771 165.586 275.078C165.664 275.38 165.729 275.667 165.781 275.938C165.839 276.203 165.88 276.435 165.906 276.633H165.969C166 276.503 166.034 276.346 166.07 276.164C166.112 275.982 166.156 275.789 166.203 275.586C166.255 275.378 166.31 275.172 166.367 274.969C166.424 274.76 166.482 274.565 166.539 274.383L168.117 269.422H169.516L171.039 274.375C171.117 274.625 171.193 274.885 171.266 275.156C171.344 275.427 171.414 275.69 171.477 275.945C171.539 276.195 171.583 276.419 171.609 276.617H171.672C171.693 276.44 171.732 276.221 171.789 275.961C171.846 275.701 171.911 275.414 171.984 275.102C172.062 274.789 172.143 274.471 172.227 274.148L173.477 269.422H174.797L172.43 277.984H170.922ZM183.742 273.703C183.742 274.406 183.651 275.034 183.469 275.586C183.286 276.138 183.023 276.604 182.68 276.984C182.336 277.365 181.919 277.656 181.43 277.859C180.945 278.057 180.396 278.156 179.781 278.156C179.208 278.156 178.682 278.057 178.203 277.859C177.729 277.656 177.318 277.365 176.969 276.984C176.625 276.604 176.357 276.138 176.164 275.586C175.977 275.034 175.883 274.406 175.883 273.703C175.883 272.766 176.042 271.969 176.359 271.312C176.677 270.651 177.13 270.148 177.719 269.805C178.312 269.456 179.018 269.281 179.836 269.281C180.617 269.281 181.299 269.456 181.883 269.805C182.471 270.154 182.927 270.659 183.25 271.32C183.578 271.977 183.742 272.771 183.742 273.703ZM177.227 273.703C177.227 274.391 177.318 274.987 177.5 275.492C177.682 275.997 177.964 276.388 178.344 276.664C178.724 276.94 179.214 277.078 179.812 277.078C180.406 277.078 180.893 276.94 181.273 276.664C181.659 276.388 181.943 275.997 182.125 275.492C182.307 274.987 182.398 274.391 182.398 273.703C182.398 273.021 182.307 272.432 182.125 271.938C181.943 271.438 181.661 271.052 181.281 270.781C180.901 270.51 180.409 270.375 179.805 270.375C178.914 270.375 178.26 270.669 177.844 271.258C177.432 271.846 177.227 272.661 177.227 273.703ZM189.875 269.281C190.047 269.281 190.227 269.292 190.414 269.312C190.602 269.328 190.768 269.352 190.914 269.383L190.75 270.586C190.609 270.549 190.453 270.521 190.281 270.5C190.109 270.479 189.948 270.469 189.797 270.469C189.453 270.469 189.128 270.539 188.82 270.68C188.518 270.815 188.253 271.013 188.023 271.273C187.794 271.529 187.615 271.839 187.484 272.203C187.354 272.562 187.289 272.964 187.289 273.406V278H185.984V269.438H187.062L187.203 271.016H187.258C187.435 270.698 187.648 270.409 187.898 270.148C188.148 269.883 188.438 269.672 188.766 269.516C189.099 269.359 189.469 269.281 189.875 269.281ZM195.578 278.156C194.495 278.156 193.635 277.786 193 277.047C192.37 276.307 192.055 275.208 192.055 273.75C192.055 272.276 192.378 271.164 193.023 270.414C193.669 269.659 194.529 269.281 195.602 269.281C196.055 269.281 196.451 269.341 196.789 269.461C197.128 269.581 197.419 269.742 197.664 269.945C197.909 270.143 198.115 270.37 198.281 270.625H198.375C198.354 270.464 198.333 270.242 198.312 269.961C198.292 269.68 198.281 269.451 198.281 269.273V265.844H199.578V278H198.531L198.336 276.781H198.281C198.12 277.036 197.914 277.268 197.664 277.477C197.419 277.685 197.125 277.852 196.781 277.977C196.443 278.096 196.042 278.156 195.578 278.156ZM195.781 277.078C196.698 277.078 197.346 276.818 197.727 276.297C198.107 275.776 198.297 275.003 198.297 273.977V273.742C198.297 272.654 198.115 271.818 197.75 271.234C197.391 270.651 196.734 270.359 195.781 270.359C194.984 270.359 194.388 270.667 193.992 271.281C193.596 271.891 193.398 272.724 193.398 273.781C193.398 274.833 193.594 275.646 193.984 276.219C194.38 276.792 194.979 277.078 195.781 277.078ZM211.562 267.586C210.932 267.586 210.365 267.695 209.859 267.914C209.359 268.128 208.932 268.44 208.578 268.852C208.229 269.258 207.961 269.75 207.773 270.328C207.586 270.906 207.492 271.557 207.492 272.281C207.492 273.24 207.641 274.073 207.938 274.781C208.24 275.484 208.688 276.029 209.281 276.414C209.88 276.799 210.628 276.992 211.523 276.992C212.034 276.992 212.513 276.951 212.961 276.867C213.414 276.779 213.854 276.669 214.281 276.539V277.695C213.865 277.852 213.427 277.966 212.969 278.039C212.51 278.117 211.966 278.156 211.336 278.156C210.174 278.156 209.203 277.917 208.422 277.438C207.646 276.953 207.062 276.271 206.672 275.391C206.286 274.51 206.094 273.471 206.094 272.273C206.094 271.409 206.214 270.62 206.453 269.906C206.698 269.188 207.052 268.568 207.516 268.047C207.984 267.526 208.557 267.125 209.234 266.844C209.917 266.557 210.698 266.414 211.578 266.414C212.156 266.414 212.714 266.471 213.25 266.586C213.786 266.701 214.271 266.865 214.703 267.078L214.172 268.203C213.807 268.036 213.406 267.893 212.969 267.773C212.536 267.648 212.068 267.586 211.562 267.586ZM217.859 265.844V269.477C217.859 269.685 217.854 269.896 217.844 270.109C217.833 270.318 217.815 270.51 217.789 270.688H217.875C218.052 270.385 218.276 270.133 218.547 269.93C218.823 269.721 219.135 269.565 219.484 269.461C219.833 269.352 220.203 269.297 220.594 269.297C221.281 269.297 221.854 269.406 222.312 269.625C222.776 269.844 223.122 270.182 223.352 270.641C223.586 271.099 223.703 271.693 223.703 272.422V278H222.422V272.508C222.422 271.794 222.258 271.26 221.93 270.906C221.607 270.552 221.109 270.375 220.438 270.375C219.802 270.375 219.294 270.497 218.914 270.742C218.539 270.982 218.268 271.336 218.102 271.805C217.94 272.273 217.859 272.846 217.859 273.523V278H216.562V265.844H217.859ZM229.578 269.297C230.599 269.297 231.357 269.526 231.852 269.984C232.346 270.443 232.594 271.174 232.594 272.18V278H231.648L231.398 276.734H231.336C231.096 277.047 230.846 277.31 230.586 277.523C230.326 277.732 230.023 277.891 229.68 278C229.341 278.104 228.924 278.156 228.43 278.156C227.909 278.156 227.445 278.065 227.039 277.883C226.638 277.701 226.32 277.424 226.086 277.055C225.857 276.685 225.742 276.216 225.742 275.648C225.742 274.794 226.081 274.138 226.758 273.68C227.435 273.221 228.466 272.971 229.852 272.93L231.328 272.867V272.344C231.328 271.604 231.169 271.086 230.852 270.789C230.534 270.492 230.086 270.344 229.508 270.344C229.06 270.344 228.633 270.409 228.227 270.539C227.82 270.669 227.435 270.823 227.07 271L226.672 270.016C227.057 269.818 227.5 269.648 228 269.508C228.5 269.367 229.026 269.297 229.578 269.297ZM231.312 273.781L230.008 273.836C228.94 273.878 228.188 274.052 227.75 274.359C227.312 274.667 227.094 275.102 227.094 275.664C227.094 276.154 227.242 276.516 227.539 276.75C227.836 276.984 228.229 277.102 228.719 277.102C229.479 277.102 230.102 276.891 230.586 276.469C231.07 276.047 231.312 275.414 231.312 274.57V273.781ZM239.32 269.281C240.336 269.281 241.104 269.531 241.625 270.031C242.146 270.526 242.406 271.323 242.406 272.422V278H241.125V272.508C241.125 271.794 240.961 271.26 240.633 270.906C240.31 270.552 239.812 270.375 239.141 270.375C238.193 270.375 237.526 270.643 237.141 271.18C236.755 271.716 236.562 272.495 236.562 273.516V278H235.266V269.438H236.312L236.508 270.672H236.578C236.76 270.37 236.992 270.117 237.273 269.914C237.555 269.706 237.87 269.549 238.219 269.445C238.568 269.336 238.935 269.281 239.32 269.281ZM247.469 281.844C246.344 281.844 245.477 281.633 244.867 281.211C244.258 280.794 243.953 280.208 243.953 279.453C243.953 278.917 244.122 278.458 244.461 278.078C244.805 277.698 245.279 277.445 245.883 277.32C245.659 277.216 245.466 277.06 245.305 276.852C245.148 276.643 245.07 276.404 245.07 276.133C245.07 275.82 245.156 275.547 245.328 275.312C245.505 275.073 245.773 274.844 246.133 274.625C245.685 274.443 245.32 274.135 245.039 273.703C244.763 273.266 244.625 272.758 244.625 272.18C244.625 271.565 244.753 271.042 245.008 270.609C245.263 270.172 245.633 269.839 246.117 269.609C246.602 269.38 247.188 269.266 247.875 269.266C248.026 269.266 248.177 269.273 248.328 269.289C248.484 269.299 248.633 269.318 248.773 269.344C248.914 269.365 249.036 269.391 249.141 269.422H252.078V270.258L250.5 270.453C250.656 270.656 250.786 270.901 250.891 271.188C250.995 271.474 251.047 271.792 251.047 272.141C251.047 272.995 250.758 273.674 250.18 274.18C249.602 274.68 248.807 274.93 247.797 274.93C247.557 274.93 247.312 274.909 247.062 274.867C246.807 275.008 246.612 275.164 246.477 275.336C246.346 275.508 246.281 275.706 246.281 275.93C246.281 276.096 246.331 276.229 246.43 276.328C246.534 276.427 246.682 276.5 246.875 276.547C247.068 276.589 247.299 276.609 247.57 276.609H249.078C250.01 276.609 250.724 276.805 251.219 277.195C251.719 277.586 251.969 278.156 251.969 278.906C251.969 279.854 251.583 280.581 250.812 281.086C250.042 281.591 248.927 281.844 247.469 281.844ZM247.508 280.828C248.216 280.828 248.802 280.755 249.266 280.609C249.734 280.469 250.083 280.263 250.312 279.992C250.547 279.727 250.664 279.409 250.664 279.039C250.664 278.695 250.586 278.435 250.43 278.258C250.273 278.086 250.044 277.971 249.742 277.914C249.44 277.852 249.07 277.82 248.633 277.82H247.148C246.763 277.82 246.427 277.88 246.141 278C245.854 278.12 245.633 278.297 245.477 278.531C245.326 278.766 245.25 279.057 245.25 279.406C245.25 279.87 245.445 280.221 245.836 280.461C246.227 280.706 246.784 280.828 247.508 280.828ZM247.844 273.984C248.464 273.984 248.93 273.828 249.242 273.516C249.555 273.203 249.711 272.747 249.711 272.148C249.711 271.508 249.552 271.029 249.234 270.711C248.917 270.388 248.448 270.227 247.828 270.227C247.234 270.227 246.776 270.393 246.453 270.727C246.135 271.055 245.977 271.536 245.977 272.172C245.977 272.755 246.138 273.203 246.461 273.516C246.784 273.828 247.245 273.984 247.844 273.984ZM257.062 269.281C257.792 269.281 258.417 269.443 258.938 269.766C259.458 270.089 259.857 270.542 260.133 271.125C260.409 271.703 260.547 272.38 260.547 273.156V273.961H254.633C254.648 274.966 254.898 275.732 255.383 276.258C255.867 276.784 256.549 277.047 257.43 277.047C257.971 277.047 258.451 276.997 258.867 276.898C259.284 276.799 259.716 276.654 260.164 276.461V277.602C259.732 277.794 259.302 277.935 258.875 278.023C258.453 278.112 257.953 278.156 257.375 278.156C256.552 278.156 255.833 277.99 255.219 277.656C254.609 277.318 254.135 276.823 253.797 276.172C253.458 275.521 253.289 274.724 253.289 273.781C253.289 272.859 253.443 272.062 253.75 271.391C254.062 270.714 254.5 270.193 255.062 269.828C255.63 269.464 256.297 269.281 257.062 269.281ZM257.047 270.344C256.354 270.344 255.802 270.57 255.391 271.023C254.979 271.477 254.734 272.109 254.656 272.922H259.188C259.182 272.411 259.102 271.964 258.945 271.578C258.794 271.188 258.562 270.885 258.25 270.672C257.938 270.453 257.536 270.344 257.047 270.344ZM265.797 278.156C264.714 278.156 263.854 277.786 263.219 277.047C262.589 276.307 262.273 275.208 262.273 273.75C262.273 272.276 262.596 271.164 263.242 270.414C263.888 269.659 264.747 269.281 265.82 269.281C266.273 269.281 266.669 269.341 267.008 269.461C267.346 269.581 267.638 269.742 267.883 269.945C268.128 270.143 268.333 270.37 268.5 270.625H268.594C268.573 270.464 268.552 270.242 268.531 269.961C268.51 269.68 268.5 269.451 268.5 269.273V265.844H269.797V278H268.75L268.555 276.781H268.5C268.339 277.036 268.133 277.268 267.883 277.477C267.638 277.685 267.344 277.852 267 277.977C266.661 278.096 266.26 278.156 265.797 278.156ZM266 277.078C266.917 277.078 267.565 276.818 267.945 276.297C268.326 275.776 268.516 275.003 268.516 273.977V273.742C268.516 272.654 268.333 271.818 267.969 271.234C267.609 270.651 266.953 270.359 266 270.359C265.203 270.359 264.607 270.667 264.211 271.281C263.815 271.891 263.617 272.724 263.617 273.781C263.617 274.833 263.812 275.646 264.203 276.219C264.599 276.792 265.198 277.078 266 277.078Z" fill="#848484"/>
<path d="M369 46.75C366.932 46.75 364.884 46.3426 362.973 45.5511C361.062 44.7596 359.326 43.5995 357.863 42.1369C356.401 40.6744 355.24 38.9381 354.449 37.0273C353.657 35.1164 353.25 33.0683 353.25 31C353.25 28.9317 353.657 26.8836 354.449 24.9727C355.24 23.0619 356.401 21.3256 357.863 19.8631C359.326 18.4005 361.062 17.2404 362.973 16.4489C364.884 15.6574 366.932 15.25 369 15.25C371.068 15.25 373.116 15.6574 375.027 16.4489C376.938 17.2404 378.674 18.4005 380.137 19.8631C381.599 21.3256 382.76 23.0619 383.551 24.9727C384.343 26.8836 384.75 28.9317 384.75 31C384.75 33.0683 384.343 35.1164 383.551 37.0273C382.76 38.9381 381.599 40.6744 380.137 42.1369C378.674 43.5995 376.938 44.7596 375.027 45.5511C373.116 46.3426 371.068 46.75 369 46.75L369 46.75Z" stroke="#848484" stroke-width="2" stroke-linecap="round"/>
<path d="M363.75 25.75L374.25 36.25" stroke="#848484" stroke-width="2" stroke-linecap="round"/>
<path d="M374.25 25.75L363.75 36.25" stroke="#848484" stroke-width="2" stroke-linecap="round"/>
</svg>
