<svg width="55" height="53" viewBox="0 0 55 53" fill="none" xmlns="http://www.w3.org/2000/svg">
<g clip-path="url(#clip0_450_56)">
<path d="M19.5 7V6C19.5 5.46957 19.7107 4.96086 20.0858 4.58579C20.4609 4.21071 20.9696 4 21.5 4H23.5" stroke="#333333" stroke-width="2" stroke-linecap="round" stroke-linejoin="round"/>
<path d="M19.5 17V18C19.5 18.5304 19.7107 19.0391 20.0858 19.4142C20.4609 19.7893 20.9696 20 21.5 20H23.5" stroke="#333333" stroke-width="2" stroke-linecap="round" stroke-linejoin="round"/>
<path d="M31.5 4H33.5C34.0304 4 34.5391 4.21071 34.9142 4.58579C35.2893 4.96086 35.5 5.46957 35.5 6V7" stroke="#333333" stroke-width="2" stroke-linecap="round" stroke-linejoin="round"/>
<path d="M31.5 20H33.5C34.0304 20 34.5391 19.7893 34.9142 19.4142C35.2893 19.0391 35.5 18.5304 35.5 18V17" stroke="#333333" stroke-width="2" stroke-linecap="round" stroke-linejoin="round"/>
<path d="M20.5 12H34.5" stroke="#333333" stroke-width="2" stroke-linecap="round" stroke-linejoin="round"/>
</g>
<path d="M17.5264 42.4929C17.4733 42.0223 17.2546 41.6577 16.8701 41.3991C16.4856 41.1373 16.0017 41.0064 15.4184 41.0064C15.0008 41.0064 14.6395 41.0727 14.3346 41.2053C14.0297 41.3345 13.7927 41.5135 13.6237 41.7422C13.4579 41.9676 13.3751 42.2244 13.3751 42.5128C13.3751 42.7547 13.4314 42.9635 13.5441 43.1392C13.6601 43.3149 13.8109 43.4624 13.9965 43.5817C14.1855 43.6977 14.3876 43.7955 14.6031 43.875C14.8185 43.9512 15.0257 44.0142 15.2245 44.0639L16.2188 44.3224C16.5436 44.402 16.8767 44.5097 17.2181 44.6456C17.5595 44.7815 17.876 44.9605 18.1677 45.1825C18.4594 45.4046 18.6947 45.6797 18.8737 46.0078C19.056 46.3359 19.1471 46.7287 19.1471 47.1861C19.1471 47.7628 18.998 48.2749 18.6997 48.7223C18.4047 49.1697 17.9755 49.5227 17.412 49.7812C16.8519 50.0398 16.1741 50.169 15.3786 50.169C14.6163 50.169 13.9568 50.0481 13.3999 49.8061C12.8431 49.5642 12.4073 49.2211 12.0924 48.777C11.7776 48.3295 11.6035 47.7992 11.5704 47.1861H13.1116C13.1414 47.554 13.2607 47.8606 13.4695 48.1058C13.6817 48.3478 13.9518 48.5284 14.2799 48.6477C14.6114 48.7637 14.9743 48.8217 15.3687 48.8217C15.8029 48.8217 16.189 48.7538 16.5271 48.6179C16.8685 48.4787 17.1369 48.2865 17.3325 48.0412C17.528 47.7926 17.6258 47.5026 17.6258 47.1712C17.6258 46.8696 17.5396 46.6226 17.3673 46.4304C17.1982 46.2382 16.9679 46.0791 16.6762 45.9531C16.3879 45.8272 16.0614 45.7161 15.6968 45.62L14.4937 45.2919C13.6784 45.0698 13.032 44.7434 12.5548 44.3125C12.0808 43.8816 11.8438 43.3116 11.8438 42.6023C11.8438 42.0156 12.0029 41.5036 12.3211 41.0661C12.6393 40.6286 13.0702 40.2888 13.6137 40.0469C14.1573 39.8016 14.7704 39.679 15.4532 39.679C16.1426 39.679 16.7508 39.8 17.2778 40.0419C17.8081 40.2839 18.2257 40.617 18.5306 41.0412C18.8356 41.4621 18.9946 41.946 19.0079 42.4929H17.5264ZM24.0802 50.1541C23.3411 50.1541 22.7047 49.9867 22.1711 49.652C21.6408 49.3139 21.2331 48.8482 20.9481 48.255C20.663 47.6617 20.5205 46.9822 20.5205 46.2166C20.5205 45.4411 20.6663 44.7566 20.958 44.1634C21.2497 43.5668 21.6607 43.1011 22.191 42.7663C22.7213 42.4316 23.346 42.2642 24.0653 42.2642C24.6453 42.2642 25.1623 42.3719 25.6164 42.5874C26.0705 42.7995 26.4367 43.0978 26.7151 43.4822C26.9968 43.8667 27.1642 44.3158 27.2172 44.8295H25.7705C25.691 44.4716 25.5087 44.1634 25.2236 43.9048C24.9419 43.6463 24.5641 43.517 24.0901 43.517C23.6758 43.517 23.3129 43.6264 23.0013 43.8452C22.6931 44.0606 22.4528 44.3688 22.2805 44.7699C22.1081 45.1676 22.0219 45.6383 22.0219 46.1818C22.0219 46.7386 22.1064 47.2192 22.2755 47.6236C22.4445 48.0279 22.6832 48.3411 22.9914 48.5632C23.3029 48.7853 23.6692 48.8963 24.0901 48.8963C24.3718 48.8963 24.627 48.8449 24.8557 48.7422C25.0877 48.6361 25.2816 48.4853 25.4374 48.2898C25.5965 48.0942 25.7075 47.8589 25.7705 47.5838H27.2172C27.1642 48.0777 27.0035 48.5185 26.735 48.9062C26.4665 49.294 26.1069 49.599 25.6562 49.821C25.2087 50.0431 24.6834 50.1541 24.0802 50.1541ZM31.0292 50.169C30.5453 50.169 30.1078 50.0795 29.7167 49.9006C29.3256 49.7183 29.0157 49.4548 28.787 49.1101C28.5616 48.7654 28.449 48.3428 28.449 47.8423C28.449 47.4115 28.5318 47.0568 28.6975 46.7784C28.8633 46.5 29.087 46.2796 29.3687 46.1172C29.6504 45.9548 29.9653 45.8321 30.3133 45.7493C30.6613 45.6664 31.016 45.6035 31.3772 45.5604C31.8346 45.5073 32.2058 45.4643 32.4909 45.4311C32.7759 45.3946 32.983 45.3366 33.1123 45.2571C33.2416 45.1776 33.3062 45.0483 33.3062 44.8693V44.8345C33.3062 44.4003 33.1836 44.0639 32.9383 43.8253C32.6963 43.5866 32.3351 43.4673 31.8545 43.4673C31.354 43.4673 30.9596 43.5784 30.6713 43.8004C30.3862 44.0192 30.189 44.2628 30.0796 44.5312L28.6826 44.2131C28.8483 43.7491 29.0903 43.3745 29.4085 43.0895C29.73 42.8011 30.0995 42.5923 30.5171 42.4631C30.9347 42.3305 31.3739 42.2642 31.8346 42.2642C32.1395 42.2642 32.4627 42.3007 32.8041 42.3736C33.1488 42.4432 33.4703 42.5724 33.7686 42.7614C34.0702 42.9503 34.3171 43.2204 34.5093 43.5717C34.7016 43.9197 34.7977 44.3722 34.7977 44.929V50H33.346V48.956H33.2863C33.1902 49.1482 33.046 49.3371 32.8538 49.5227C32.6615 49.7083 32.4146 49.8625 32.113 49.9851C31.8114 50.1077 31.4501 50.169 31.0292 50.169ZM31.3524 48.9759C31.7633 48.9759 32.1147 48.8946 32.4063 48.7322C32.7013 48.5698 32.925 48.3577 33.0775 48.0959C33.2333 47.8307 33.3112 47.5473 33.3112 47.2457V46.2614C33.2581 46.3144 33.1554 46.3641 33.0029 46.4105C32.8538 46.4536 32.6831 46.4917 32.4909 46.5249C32.2986 46.5547 32.1114 46.5829 31.9291 46.6094C31.7468 46.6326 31.5943 46.6525 31.4717 46.669C31.1833 46.7055 30.9198 46.7668 30.6812 46.853C30.4459 46.9392 30.257 47.0634 30.1144 47.2259C29.9752 47.3849 29.9056 47.5971 29.9056 47.8622C29.9056 48.2301 30.0415 48.5085 30.3133 48.6974C30.5851 48.883 30.9314 48.9759 31.3524 48.9759ZM38.2641 45.4659V50H36.7776V42.3636H38.2045V43.6065H38.2989C38.4746 43.2022 38.7497 42.8774 39.1242 42.6321C39.502 42.3868 39.9777 42.2642 40.551 42.2642C41.0714 42.2642 41.5271 42.3736 41.9182 42.5923C42.3093 42.8078 42.6126 43.1293 42.828 43.5568C43.0435 43.9844 43.1512 44.513 43.1512 45.1428V50H41.6647V45.3217C41.6647 44.7682 41.5205 44.3357 41.2322 44.0241C40.9438 43.7093 40.5477 43.5518 40.0439 43.5518C39.6992 43.5518 39.3927 43.6264 39.1242 43.7756C38.859 43.9247 38.6486 44.1435 38.4928 44.4318C38.3403 44.7169 38.2641 45.0616 38.2641 45.4659Z" fill="#333333"/>
<defs>
<clipPath id="clip0_450_56">
<rect width="24" height="24" fill="white" transform="translate(15.5)"/>
</clipPath>
</defs>
</svg>
