<svg width="56" height="54" viewBox="0 0 56 54" fill="none" xmlns="http://www.w3.org/2000/svg">
<g clip-path="url(#clip0_450_73)">
<path d="M28 13.5C28.8284 13.5 29.5 12.8284 29.5 12C29.5 11.1716 28.8284 10.5 28 10.5C27.1716 10.5 26.5 11.1716 26.5 12C26.5 12.8284 27.1716 13.5 28 13.5Z" fill="#333333"/>
<path d="M37.89 10.32L37.1 7.8C37.0147 7.50876 36.8717 7.23767 36.6793 7.00292C36.487 6.76817 36.2493 6.57456 35.9806 6.43364C35.7118 6.29272 35.4174 6.20737 35.1149 6.1827C34.8124 6.15802 34.5081 6.19451 34.22 6.29L33.88 6.4C33.6137 6.48805 33.33 6.51039 33.0531 6.46511C32.7763 6.41984 32.5145 6.3083 32.29 6.14L32.18 6.06C31.961 5.89237 31.7845 5.67562 31.6646 5.42723C31.5448 5.17884 31.485 4.90575 31.49 4.63V4.35C31.4949 3.72202 31.2503 3.11779 30.81 2.67C30.6006 2.45845 30.3515 2.29036 30.0769 2.17538C29.8023 2.0604 29.5077 2.0008 29.21 2H26.66C26.0482 2.00791 25.4643 2.25719 25.0354 2.69358C24.6065 3.12997 24.3673 3.71813 24.37 4.33V4.57C24.3691 4.86027 24.303 5.14663 24.1766 5.40796C24.0503 5.6693 23.8669 5.89895 23.64 6.08L23.51 6.18C23.2594 6.36962 22.9662 6.49516 22.656 6.5457C22.3458 6.59624 22.0279 6.57025 21.73 6.47C21.4564 6.37533 21.1665 6.33715 20.8777 6.35777C20.589 6.3784 20.3074 6.4574 20.05 6.59C19.7821 6.72299 19.5444 6.90969 19.3517 7.1385C19.159 7.36731 19.0155 7.63333 18.93 7.92L18.11 10.52C17.9199 11.1062 17.9686 11.7437 18.2457 12.2942C18.5228 12.8447 19.0059 13.2636 19.59 13.46H19.75C20.0195 13.561 20.2613 13.7241 20.4559 13.9361C20.6505 14.148 20.7924 14.4029 20.87 14.68L20.93 14.84C21.0415 15.1461 21.0788 15.4743 21.0388 15.7977C20.9988 16.121 20.8827 16.4302 20.7 16.7C20.3303 17.2036 20.1743 17.8328 20.266 18.4508C20.3578 19.0688 20.6899 19.6256 21.19 20L23.26 21.57C23.652 21.855 24.1255 22.0058 24.61 22C24.7397 22.0127 24.8703 22.0127 25 22C25.3001 21.9419 25.5853 21.8233 25.838 21.6514C26.0907 21.4794 26.3058 21.2578 26.47 21L26.7 20.67C26.8614 20.4386 27.0749 20.2483 27.3233 20.1145C27.5717 19.9808 27.848 19.9073 28.13 19.9C28.4256 19.8927 28.7182 19.9604 28.9805 20.0968C29.2428 20.2332 29.4663 20.4339 29.63 20.68L29.75 20.85C29.9205 21.1037 30.1412 21.3199 30.3984 21.4852C30.6555 21.6504 30.9438 21.7613 31.2455 21.8109C31.5471 21.8606 31.8558 21.848 32.1523 21.7739C32.4489 21.6997 32.7272 21.5657 32.97 21.38L35 19.86C35.48 19.4872 35.7992 18.945 35.8922 18.3444C35.9851 17.7438 35.8448 17.1304 35.5 16.63L35.24 16.25C35.0837 16.0084 34.9813 15.736 34.9399 15.4512C34.8985 15.1664 34.919 14.8761 35 14.6C35.0826 14.3044 35.236 14.0334 35.4468 13.8104C35.6576 13.5874 35.9196 13.4191 36.21 13.32L36.41 13.25C36.9887 13.0492 37.4667 12.6312 37.7429 12.0845C38.0191 11.5377 38.0718 10.905 37.89 10.32ZM28 15.5C27.3078 15.5 26.6311 15.2947 26.0555 14.9101C25.48 14.5256 25.0314 13.9789 24.7665 13.3394C24.5015 12.6999 24.4322 11.9961 24.5673 11.3172C24.7023 10.6383 25.0357 10.0146 25.5252 9.52513C26.0146 9.03564 26.6383 8.7023 27.3172 8.56725C27.9962 8.4322 28.6999 8.50151 29.3394 8.76642C29.979 9.03133 30.5256 9.47993 30.9102 10.0555C31.2948 10.6311 31.5 11.3078 31.5 12C31.5 12.9283 31.1313 13.8185 30.4749 14.4749C29.8185 15.1313 28.9283 15.5 28 15.5Z" fill="#333333"/>
</g>
<path d="M6.84961 42.4929C6.79658 42.0223 6.57783 41.6577 6.19336 41.3991C5.80889 41.1373 5.32499 41.0064 4.74166 41.0064C4.32404 41.0064 3.96277 41.0727 3.65785 41.2053C3.35292 41.3345 3.11594 41.5135 2.94691 41.7422C2.78119 41.9676 2.69833 42.2244 2.69833 42.5128C2.69833 42.7547 2.75468 42.9635 2.86737 43.1392C2.98337 43.3149 3.13417 43.4624 3.31978 43.5817C3.5087 43.6977 3.71088 43.7955 3.92631 43.875C4.14175 43.9512 4.3489 44.0142 4.54776 44.0639L5.54208 44.3224C5.86689 44.402 6.19999 44.5097 6.54137 44.6456C6.88275 44.7815 7.19928 44.9605 7.49094 45.1825C7.78261 45.4046 8.01793 45.6797 8.19691 46.0078C8.3792 46.3359 8.47035 46.7287 8.47035 47.1861C8.47035 47.7628 8.3212 48.2749 8.0229 48.7223C7.72792 49.1697 7.29871 49.5227 6.73526 49.7812C6.17513 50.0398 5.49734 50.169 4.70188 50.169C3.93957 50.169 3.28001 50.0481 2.72319 49.8061C2.16637 49.5642 1.73053 49.2211 1.41566 48.777C1.10079 48.3295 0.926787 47.7992 0.893644 47.1861H2.43484C2.46467 47.554 2.58398 47.8606 2.79279 48.1058C3.00491 48.3478 3.27504 48.5284 3.60316 48.6477C3.9346 48.7637 4.29753 48.8217 4.69194 48.8217C5.12612 48.8217 5.51225 48.7538 5.85032 48.6179C6.1917 48.4787 6.46017 48.2865 6.65572 48.0412C6.85127 47.7926 6.94904 47.5026 6.94904 47.1712C6.94904 46.8696 6.86287 46.6226 6.69052 46.4304C6.52148 46.2382 6.29113 46.0791 5.99947 45.9531C5.71112 45.8272 5.38465 45.7161 5.02006 45.62L3.81694 45.2919C3.0016 45.0698 2.35529 44.7434 1.87802 44.3125C1.40406 43.8816 1.16708 43.3116 1.16708 42.6023C1.16708 42.0156 1.32617 41.5036 1.64435 41.0661C1.96254 40.6286 2.39341 40.2888 2.93697 40.0469C3.48053 39.8016 4.09369 39.679 4.77646 39.679C5.46585 39.679 6.07404 39.8 6.60103 40.0419C7.13133 40.2839 7.54895 40.617 7.85387 41.0412C8.1588 41.4621 8.31789 41.946 8.33114 42.4929H6.84961ZM13.478 50.1541C12.7256 50.1541 12.0777 49.9934 11.5341 49.6719C10.9938 49.3471 10.5762 48.8913 10.2812 48.3047C9.98958 47.7147 9.84375 47.0237 9.84375 46.2315C9.84375 45.4493 9.98958 44.7599 10.2812 44.1634C10.5762 43.5668 10.9872 43.1011 11.5142 42.7663C12.0445 42.4316 12.6643 42.2642 13.3736 42.2642C13.8045 42.2642 14.2221 42.3355 14.6264 42.478C15.0308 42.6205 15.3937 42.8442 15.7152 43.1491C16.0367 43.4541 16.2902 43.8501 16.4759 44.3374C16.6615 44.8213 16.7543 45.4096 16.7543 46.1023V46.6293H10.6839V45.5156H15.2976C15.2976 45.1245 15.218 44.7782 15.0589 44.4766C14.8999 44.1716 14.6761 43.9313 14.3878 43.7557C14.1027 43.58 13.768 43.4922 13.3835 43.4922C12.9659 43.4922 12.6013 43.5949 12.2898 43.8004C11.9815 44.0026 11.7429 44.2678 11.5739 44.5959C11.4081 44.9207 11.3253 45.2737 11.3253 45.6548V46.5249C11.3253 47.0353 11.4148 47.4695 11.5938 47.8274C11.776 48.1854 12.0296 48.4588 12.3544 48.6477C12.6792 48.8333 13.0587 48.9261 13.4929 48.9261C13.7746 48.9261 14.0315 48.8864 14.2635 48.8068C14.4955 48.724 14.696 48.6013 14.8651 48.4389C15.0341 48.2765 15.1634 48.076 15.2528 47.8374L16.6598 48.0909C16.5471 48.5052 16.3449 48.8681 16.0533 49.1797C15.7649 49.4879 15.402 49.7282 14.9645 49.9006C14.5303 50.0696 14.0348 50.1541 13.478 50.1541ZM21.9682 42.3636V43.5568H17.7971V42.3636H21.9682ZM18.9157 40.5341H20.4022V47.7578C20.4022 48.0462 20.4453 48.2633 20.5314 48.4091C20.6176 48.5516 20.7286 48.6494 20.8645 48.7024C21.0037 48.7521 21.1545 48.777 21.3169 48.777C21.4363 48.777 21.5407 48.7687 21.6301 48.7521C21.7196 48.7356 21.7892 48.7223 21.839 48.7124L22.1074 49.9403C22.0212 49.9735 21.8986 50.0066 21.7395 50.0398C21.5804 50.0762 21.3816 50.0961 21.1429 50.0994C20.7518 50.1061 20.3873 50.0365 20.0492 49.8906C19.7111 49.7448 19.4377 49.5194 19.2289 49.2145C19.0201 48.9096 18.9157 48.5268 18.9157 48.0661V40.5341ZM27.1772 42.3636V43.5568H23.006V42.3636H27.1772ZM24.1246 40.5341H25.6112V47.7578C25.6112 48.0462 25.6542 48.2633 25.7404 48.4091C25.8266 48.5516 25.9376 48.6494 26.0735 48.7024C26.2127 48.7521 26.3635 48.777 26.5259 48.777C26.6452 48.777 26.7496 48.7687 26.8391 48.7521C26.9286 48.7356 26.9982 48.7223 27.0479 48.7124L27.3164 49.9403C27.2302 49.9735 27.1076 50.0066 26.9485 50.0398C26.7894 50.0762 26.5906 50.0961 26.3519 50.0994C25.9608 50.1061 25.5962 50.0365 25.2582 49.8906C24.9201 49.7448 24.6467 49.5194 24.4379 49.2145C24.229 48.9096 24.1246 48.5268 24.1246 48.0661V40.5341ZM28.8216 50V42.3636H30.3081V50H28.8216ZM29.5723 41.1854C29.3137 41.1854 29.0917 41.0992 28.9061 40.9268C28.7238 40.7512 28.6326 40.5424 28.6326 40.3004C28.6326 40.0552 28.7238 39.8464 28.9061 39.674C29.0917 39.4983 29.3137 39.4105 29.5723 39.4105C29.8308 39.4105 30.0512 39.4983 30.2335 39.674C30.4191 39.8464 30.5119 40.0552 30.5119 40.3004C30.5119 40.5424 30.4191 40.7512 30.2335 40.9268C30.0512 41.0992 29.8308 41.1854 29.5723 41.1854ZM33.7944 45.4659V50H32.3079V42.3636H33.7347V43.6065H33.8292C34.0049 43.2022 34.2799 42.8774 34.6545 42.6321C35.0323 42.3868 35.5079 42.2642 36.0813 42.2642C36.6017 42.2642 37.0574 42.3736 37.4485 42.5923C37.8396 42.8078 38.1429 43.1293 38.3583 43.5568C38.5737 43.9844 38.6815 44.513 38.6815 45.1428V50H37.195V45.3217C37.195 44.7682 37.0508 44.3357 36.7624 44.0241C36.4741 43.7093 36.078 43.5518 35.5742 43.5518C35.2295 43.5518 34.9229 43.6264 34.6545 43.7756C34.3893 43.9247 34.1789 44.1435 34.0231 44.4318C33.8706 44.7169 33.7944 45.0616 33.7944 45.4659ZM43.8768 53.0227C43.2702 53.0227 42.7482 52.9432 42.3107 52.7841C41.8765 52.625 41.5219 52.4145 41.2468 52.1527C40.9717 51.8909 40.7662 51.6042 40.6303 51.2926L41.908 50.7656C41.9975 50.9115 42.1168 51.0656 42.266 51.228C42.4184 51.3937 42.6239 51.5346 42.8825 51.6506C43.1443 51.7666 43.4807 51.8246 43.8917 51.8246C44.4551 51.8246 44.9208 51.687 45.2887 51.4119C45.6566 51.1402 45.8406 50.706 45.8406 50.1094V48.608H45.7461C45.6566 48.7704 45.5273 48.951 45.3583 49.1499C45.1926 49.3487 44.9639 49.5211 44.6722 49.6669C44.3806 49.8127 44.0011 49.8857 43.5337 49.8857C42.9305 49.8857 42.387 49.7448 41.9031 49.4631C41.4225 49.178 41.0413 48.7588 40.7596 48.2053C40.4812 47.6484 40.342 46.964 40.342 46.152C40.342 45.34 40.4795 44.6439 40.7546 44.0639C41.033 43.4839 41.4142 43.0398 41.8981 42.7315C42.382 42.42 42.9305 42.2642 43.5437 42.2642C44.0176 42.2642 44.4004 42.3438 44.6921 42.5028C44.9838 42.6586 45.2108 42.8409 45.3732 43.0497C45.5389 43.2585 45.6665 43.4425 45.756 43.6016H45.8654V42.3636H47.3221V50.169C47.3221 50.8253 47.1696 51.3639 46.8647 51.7848C46.5598 52.2057 46.1471 52.5173 45.6268 52.7195C45.1097 52.9216 44.5264 53.0227 43.8768 53.0227ZM43.8619 48.6527C44.2894 48.6527 44.6507 48.5533 44.9457 48.3544C45.244 48.1522 45.4693 47.8639 45.6218 47.4893C45.7776 47.1115 45.8555 46.6591 45.8555 46.1321C45.8555 45.6184 45.7792 45.166 45.6268 44.7749C45.4743 44.3838 45.2506 44.0788 44.9556 43.8601C44.6606 43.638 44.296 43.527 43.8619 43.527C43.4144 43.527 43.0415 43.643 42.7433 43.875C42.445 44.1037 42.2196 44.4152 42.0671 44.8097C41.918 45.2041 41.8434 45.6449 41.8434 46.1321C41.8434 46.6326 41.9196 47.0717 42.0721 47.4496C42.2246 47.8274 42.4499 48.1224 42.7482 48.3345C43.0498 48.5466 43.421 48.6527 43.8619 48.6527ZM55.038 44.228L53.6907 44.4666C53.6344 44.2943 53.5449 44.1302 53.4222 43.9744C53.3029 43.8187 53.1405 43.6911 52.935 43.5916C52.7295 43.4922 52.4727 43.4425 52.1644 43.4425C51.7435 43.4425 51.3922 43.5369 51.1104 43.7259C50.8287 43.9115 50.6879 44.1518 50.6879 44.4467C50.6879 44.7019 50.7823 44.9074 50.9712 45.0632C51.1602 45.219 51.4651 45.3466 51.886 45.446L53.0991 45.7244C53.8017 45.8868 54.3254 46.1371 54.6701 46.4751C55.0148 46.8132 55.1871 47.2524 55.1871 47.7926C55.1871 48.25 55.0546 48.6577 54.7894 49.0156C54.5276 49.3703 54.1613 49.6487 53.6907 49.8509C53.2234 50.053 52.6815 50.1541 52.065 50.1541C51.2099 50.1541 50.5122 49.9718 49.9719 49.6072C49.4317 49.2393 49.1003 48.7173 48.9776 48.0412L50.4144 47.8224C50.5039 48.197 50.6879 48.4804 50.9663 48.6726C51.2447 48.8615 51.6076 48.956 52.055 48.956C52.5423 48.956 52.9317 48.8549 53.2234 48.6527C53.515 48.4472 53.6609 48.197 53.6609 47.902C53.6609 47.6634 53.5714 47.4628 53.3924 47.3004C53.2167 47.138 52.9466 47.0154 52.582 46.9325L51.2894 46.6491C50.5768 46.4867 50.0498 46.2282 49.7085 45.8736C49.3704 45.5189 49.2013 45.0698 49.2013 44.5263C49.2013 44.0755 49.3273 43.6811 49.5792 43.343C49.8311 43.005 50.1791 42.7415 50.6232 42.5526C51.0674 42.3603 51.5761 42.2642 52.1495 42.2642C52.9748 42.2642 53.6244 42.4432 54.0984 42.8011C54.5723 43.1558 54.8855 43.6314 55.038 44.228Z" fill="#333333"/>
<defs>
<clipPath id="clip0_450_73">
<rect width="24" height="24" fill="white" transform="translate(16)"/>
</clipPath>
</defs>
</svg>
